<?xml version="1.0" standalone="no"?>
<!DOCTYPE svg PUBLIC "-//W3C//DTD SVG 20010904//EN"
 "http://www.w3.org/TR/2001/REC-SVG-20010904/DTD/svg10.dtd">
<svg version="1.0" xmlns="http://www.w3.org/2000/svg"
 width="512.000000pt" height="512.000000pt" viewBox="0 0 512.000000 512.000000"
 preserveAspectRatio="xMidYMid meet">

<g transform="translate(0.000000,512.000000) scale(0.100000,-0.100000)"
fill="#000000" stroke="none">
<path d="M1685 4990 c-189 -39 -351 -163 -436 -335 -57 -117 -69 -185 -69
-422 l0 -203 -164 0 c-295 0 -426 -23 -577 -101 -196 -102 -337 -273 -406
-494 l-28 -90 0 -1270 0 -1270 23 -78 c83 -286 293 -496 579 -579 l78 -23
1875 0 1875 0 78 23 c286 83 496 293 579 579 l23 78 0 1270 0 1270 -28 90
c-73 233 -216 400 -432 505 -139 68 -205 80 -482 87 l-233 6 0 201 c0 236 -12
305 -69 421 -72 145 -186 247 -345 309 l-81 31 -860 2 c-473 0 -878 -3 -900
-7z m1746 -269 c98 -37 203 -144 229 -236 7 -22 14 -133 17 -247 l5 -208
-1121 0 -1121 0 0 168 c0 263 20 341 111 431 52 53 120 89 187 101 26 4 409 7
852 6 640 -1 812 -4 841 -15z m1004 -976 c192 -49 342 -194 402 -390 17 -57
18 -124 18 -1290 l0 -1230 -23 -65 c-32 -88 -66 -145 -126 -209 -67 -71 -153
-126 -241 -154 l-70 -22 -1835 0 -1835 0 -70 22 c-88 28 -174 83 -241 154 -60
64 -94 121 -126 209 l-23 65 0 1230 c0 1166 1 1233 18 1290 60 194 209 340
397 389 85 23 3668 23 3755 1z"/>
<path d="M2277 3209 c-87 -21 -146 -67 -188 -149 -23 -43 -24 -57 -27 -267
l-4 -223 -207 0 c-237 0 -272 -7 -344 -70 -26 -23 -54 -61 -68 -92 -22 -50
-23 -68 -27 -290 -5 -275 5 -354 49 -421 30 -45 81 -86 134 -108 19 -8 109
-14 247 -17 l216 -4 4 -217 c3 -193 5 -221 24 -261 27 -59 76 -107 139 -136
49 -23 57 -24 335 -24 278 0 286 1 335 24 63 29 112 77 139 136 19 40 21 68
24 261 l4 217 216 4 c138 3 228 9 247 17 53 22 104 63 134 108 44 67 54 146
49 421 -4 222 -5 240 -27 290 -14 31 -42 69 -68 92 -72 63 -107 70 -344 70
l-207 0 -4 223 c-3 218 -4 223 -30 272 -33 63 -69 98 -133 127 -48 22 -62 23
-315 25 -146 1 -282 -2 -303 -8z m513 -506 c0 -137 5 -266 10 -288 6 -25 22
-52 44 -72 l36 -33 280 0 280 0 0 -235 0 -235 -266 0 c-295 0 -314 -3 -357
-64 -21 -30 -22 -40 -25 -308 l-4 -278 -228 0 -228 0 -4 278 c-4 392 16 372
-382 372 l-266 0 0 235 0 235 280 0 280 0 36 33 c22 20 38 47 44 72 5 22 10
151 10 288 l0 247 230 0 230 0 0 -247z"/>
</g>
</svg>
