<?xml version="1.0" encoding="iso-8859-1"?>
<!-- Generator: Adobe Illustrator 17.1.0, SVG Export Plug-In . SVG Version: 6.00 Build 0)  -->
<!DOCTYPE svg PUBLIC "-//W3C//DTD SVG 1.1//EN" "http://www.w3.org/Graphics/SVG/1.1/DTD/svg11.dtd">
<svg version="1.1" id="Capa_1" xmlns="http://www.w3.org/2000/svg" xmlns:xlink="http://www.w3.org/1999/xlink" x="0px" y="0px"
	 viewBox="0 0 264.354 264.354" style="enable-background:new 0 0 264.354 264.354;" xml:space="preserve">
<path d="M242.006,57.607h-60.223V30.883c0-4.418-3.582-8-8-8H90.57c-4.419,0-8,3.582-8,8v26.725H22.347
	C10.025,57.607,0,67.632,0,79.955v139.169c0,12.322,10.025,22.347,22.347,22.347h219.659c12.323,0,22.348-10.025,22.348-22.347
	V79.955C264.354,67.632,254.329,57.607,242.006,57.607z M98.57,38.883h67.213v18.725H98.57V38.883z M22.347,73.607h219.659
	c3.5,0,6.348,2.848,6.348,6.348v39.299c-15.73,15.147-53.207,26.191-96.322,28.828l-1.35-10.505c0-5.947-4.82-10.768-10.766-10.768
	H124.44c-5.946,0-10.767,4.821-10.767,10.768l-1.35,10.505C69.206,145.445,31.729,134.4,16,119.252V79.955
	C16,76.455,18.847,73.607,22.347,73.607z M242.006,225.471H22.347c-3.5,0-6.347-2.847-6.347-6.347v-79.815
	c21.098,13.308,55.052,22.262,94.274,24.705l-1.515,11.784c0,5.948,4.821,10.769,10.767,10.769h25.303
	c5.946,0,10.766-4.82,10.766-10.769l-1.515-11.784c39.222-2.442,73.176-11.396,94.274-24.704v79.815
	C248.354,222.624,245.506,225.471,242.006,225.471z"/>
<g>
</g>
<g>
</g>
<g>
</g>
<g>
</g>
<g>
</g>
<g>
</g>
<g>
</g>
<g>
</g>
<g>
</g>
<g>
</g>
<g>
</g>
<g>
</g>
<g>
</g>
<g>
</g>
<g>
</g>
</svg>
