<?xml version="1.0" standalone="no"?>
<!DOCTYPE svg PUBLIC "-//W3C//DTD SVG 20010904//EN"
 "http://www.w3.org/TR/2001/REC-SVG-20010904/DTD/svg10.dtd">
<svg version="1.0" xmlns="http://www.w3.org/2000/svg"
 width="64.000000pt" height="64.000000pt" viewBox="0 0 64.000000 64.000000"
 preserveAspectRatio="xMidYMid meet">

<g transform="translate(0.000000,64.000000) scale(0.100000,-0.100000)"
fill="#000000" stroke="none">
<path d="M207 620 c-39 -12 -56 -37 -57 -82 0 -38 0 -38 -42 -38 -45 0 -78
-19 -97 -57 -7 -13 -11 -84 -11 -185 0 -144 2 -167 20 -195 11 -18 32 -36 47
-40 36 -10 470 -10 506 0 15 4 36 22 47 40 18 28 20 51 20 195 0 101 -4 172
-11 185 -19 38 -52 57 -96 57 -43 0 -43 0 -43 38 -1 46 -18 70 -61 82 -41 12
-183 12 -222 0z m241 -42 c7 -7 12 -27 12 -45 l0 -33 -140 0 -140 0 0 33 c0
18 5 38 12 45 17 17 239 17 256 0z m133 -127 c24 -19 24 -23 24 -189 0 -153
-2 -172 -19 -191 -18 -20 -28 -21 -266 -21 -238 0 -248 1 -266 21 -17 19 -19
38 -19 191 0 226 -25 208 285 208 219 0 240 -1 261 -19z"/>
<path d="M267 394 c-4 -4 -7 -22 -7 -40 0 -31 -2 -33 -37 -36 l-38 -3 0 -55 0
-55 37 -3 c35 -3 37 -5 40 -40 l3 -37 55 0 55 0 3 37 c3 35 5 37 40 40 l37 3
0 55 0 55 -37 3 c-35 3 -37 5 -40 40 -3 37 -3 37 -53 40 -28 2 -54 0 -58 -4z
m83 -64 l0 -40 40 0 c38 0 40 -2 40 -29 0 -27 -3 -30 -37 -33 -36 -3 -38 -5
-41 -40 -3 -34 -6 -38 -32 -38 -26 0 -29 4 -32 38 -3 35 -5 37 -40 40 -35 3
-38 6 -38 33 0 27 2 29 40 29 l40 0 0 40 c0 38 2 40 30 40 28 0 30 -2 30 -40z"/>
</g>
</svg>
