<?xml version="1.0" standalone="no"?>
<!DOCTYPE svg PUBLIC "-//W3C//DTD SVG 20010904//EN"
 "http://www.w3.org/TR/2001/REC-SVG-20010904/DTD/svg10.dtd">
<svg version="1.0" xmlns="http://www.w3.org/2000/svg"
 width="200.000000pt" height="200.000000pt" viewBox="0 0 200.000000 200.000000"
 preserveAspectRatio="xMidYMid meet">

<g transform="translate(0.000000,200.000000) scale(0.100000,-0.100000)"
fill="#000000" stroke="none">
<path d="M20 1680 c-20 -20 -20 -33 -20 -680 0 -647 0 -660 20 -680 20 -20 33
-20 673 -20 l652 0 148 152 c425 439 507 527 507 548 0 21 -82 109 -507 548
l-148 152 -652 0 c-640 0 -653 0 -673 -20z m1550 -385 c151 -157 275 -289 275
-295 0 -6 -124 -138 -275 -295 l-274 -285 -588 0 -588 0 0 580 0 580 588 0
588 0 274 -285z"/>
<path d="M331 1386 l-54 -55 154 -161 c85 -88 154 -165 154 -170 0 -5 -69 -82
-154 -170 l-154 -161 54 -55 54 -54 162 162 163 163 163 -163 162 -162 54 54
54 55 -154 160 c-85 89 -154 166 -154 171 0 5 69 82 154 171 l154 160 -54 55
-54 54 -162 -162 -163 -163 -163 163 -162 162 -54 -54z"/>
</g>
</svg>
