<?xml version="1.0" ?><svg viewBox="0 0 512 512" xmlns="http://www.w3.org/2000/svg"><title/><g id="Plaster"><path d="M428.516,83.4844a93.8349,93.8349,0,0,0-132.7051,0L83.4847,295.8105A93.8363,93.8363,0,0,0,216.1888,428.5156L428.516,216.19A93.8367,93.8367,0,0,0,428.516,83.4844ZM116.2054,381.6133a20,20,0,1,1,0-28.2832A20,20,0,0,1,116.2054,381.6133ZM158.6713,424.08a20.0007,20.0007,0,1,1,0-28.2852A20.0011,20.0011,0,0,1,158.6713,424.08Zm0-84.9317a20.0006,20.0006,0,1,1,0-28.2851A20.0009,20.0009,0,0,1,158.6713,339.1484Zm42.4648,42.4649a20,20,0,1,1,0-28.2832A20,20,0,0,1,201.1361,381.6133ZM337.6136,250.8242l-86.789,86.7891a19.7051,19.7051,0,0,1-27.8672,0l-48.57-48.57a19.7051,19.7051,0,0,1,0-27.8672l86.789-86.7891a19.7051,19.7051,0,0,1,27.8672,0l48.57,48.57A19.7049,19.7049,0,0,1,337.6136,250.8242Zm1.5352-92.1543a20,20,0,1,1,0-28.2832A20,20,0,0,1,339.1488,158.67Zm42.4658,42.4668a20.0006,20.0006,0,1,1,0-28.2851A20.0008,20.0008,0,0,1,381.6146,201.1367Zm0-84.9316a20.0006,20.0006,0,1,1,0-28.2852A20.001,20.001,0,0,1,381.6146,116.2051ZM424.08,158.67a20,20,0,1,1,0-28.2832A20,20,0,0,1,424.08,158.67Z"/></g></svg>