<?xml version="1.0" standalone="no"?>
<!DOCTYPE svg PUBLIC "-//W3C//DTD SVG 20010904//EN"
 "http://www.w3.org/TR/2001/REC-SVG-20010904/DTD/svg10.dtd">
<svg version="1.0" xmlns="http://www.w3.org/2000/svg"
 width="1600.000000pt" height="1600.000000pt" viewBox="0 0 1600.000000 1600.000000"
 preserveAspectRatio="xMidYMid meet">

<g transform="translate(0.000000,1600.000000) scale(0.100000,-0.100000)"
fill="#000000" stroke="none">
<path d="M5785 14993 c-1092 -75 -2081 -773 -2529 -1785 -290 -657 -335 -1396
-124 -2082 266 -870 928 -1583 1780 -1920 266 -105 647 -191 868 -197 46 -1
50 -3 25 -9 -16 -4 -58 -8 -93 -9 -96 -2 -339 -29 -512 -57 -897 -145 -1698
-513 -2420 -1113 -147 -122 -477 -452 -601 -601 -731 -876 -1132 -1914 -1175
-3042 l-7 -178 500 0 500 0 7 160 c55 1284 700 2445 1756 3156 981 661 2200
854 3330 527 262 -75 511 -177 788 -323 l122 -64 0 -2267 c0 -2455 -2 -2341
53 -2504 100 -291 341 -532 632 -632 164 -56 21 -53 2815 -53 2794 0 2651 -3
2815 53 291 100 532 341 632 632 56 164 53 21 53 2815 0 2801 3 2650 -55 2819
-54 159 -140 288 -278 417 -121 113 -253 185 -435 237 l-77 22 -2610 3 c-2870
3 -2690 6 -2868 -58 -116 -42 -236 -119 -335 -214 -64 -62 -153 -169 -177
-213 -1 -1 -73 28 -161 66 -294 127 -514 202 -809 275 -270 67 -604 119 -851
132 -143 8 -217 22 -124 23 30 1 104 8 164 16 990 132 1851 747 2299 1642 324
647 402 1380 221 2081 -100 389 -309 806 -561 1121 -468 584 -1159 986 -1883
1095 -209 32 -471 43 -675 29z m413 -1003 c295 -32 575 -122 815 -263 807
-476 1175 -1441 890 -2339 -146 -462 -452 -849 -870 -1101 -439 -264 -970
-350 -1473 -237 -999 223 -1664 1163 -1545 2184 74 628 423 1166 971 1491 352
210 803 308 1212 265z m7802 -6490 l0 -500 -2500 0 -2500 0 0 500 0 500 2500
0 2500 0 0 -500z m-4000 -2000 l0 -500 1500 0 1500 0 0 500 0 500 500 0 500 0
0 -1500 0 -1500 -2500 0 -2500 0 0 1500 0 1500 500 0 500 0 0 -500z"/>
</g>
</svg>
